G04 #@! TF.FileFunction,Copper,L2,Bot,Signal*
%FSLAX46Y46*%
G04 Gerber Fmt 4.6, Leading zero omitted, Abs format (unit mm)*
G04 Created by KiCad (PCBNEW 4.0.2-stable) date 2016/6/3 下午 03:13:17*
%MOMM*%
G01*
G04 APERTURE LIST*
%ADD10C,0.100000*%
%ADD11O,1.524000X2.540000*%
%ADD12C,3.937000*%
%ADD13C,1.524000*%
%ADD14R,2.032000X1.727200*%
%ADD15O,2.032000X1.727200*%
%ADD16R,2.000000X1.900000*%
%ADD17C,1.900000*%
%ADD18C,0.400000*%
%ADD19C,0.254000*%
G04 APERTURE END LIST*
D10*
D11*
X229870000Y-95250000D03*
X227330000Y-95250000D03*
X224790000Y-95250000D03*
X222250000Y-95250000D03*
X219710000Y-95250000D03*
X217170000Y-95250000D03*
X214630000Y-95250000D03*
X212090000Y-95250000D03*
D12*
X232410000Y-110490000D03*
D13*
X229870000Y-120650000D03*
X232410000Y-120650000D03*
X232410000Y-118110000D03*
X229870000Y-118110000D03*
X229870000Y-115570000D03*
X232410000Y-115570000D03*
X220980000Y-108585000D03*
X220980000Y-98425000D03*
X229870000Y-125095000D03*
X219710000Y-125095000D03*
D14*
X225425000Y-100330000D03*
D15*
X225425000Y-102870000D03*
X225425000Y-105410000D03*
D16*
X219710000Y-118745000D03*
D17*
X219710000Y-121285000D03*
D18*
X232410000Y-120650000D02*
X232410000Y-121285000D01*
X232410000Y-121285000D02*
X231140000Y-122555000D01*
X231140000Y-122555000D02*
X226060000Y-122555000D01*
X226060000Y-122555000D02*
X222885000Y-119380000D01*
X222885000Y-119380000D02*
X222885000Y-105410000D01*
X222885000Y-105410000D02*
X225425000Y-102870000D01*
D19*
G36*
X232081000Y-94020092D02*
X232081000Y-105156000D01*
X232135046Y-105427705D01*
X232288954Y-105658046D01*
X234621000Y-107990092D01*
X234621000Y-109023389D01*
X234618427Y-109017162D01*
X233886690Y-108284147D01*
X232930140Y-107886953D01*
X231894404Y-107886049D01*
X230937162Y-108281573D01*
X230204147Y-109013310D01*
X229806953Y-109969860D01*
X229806049Y-111005596D01*
X230201573Y-111962838D01*
X230933310Y-112695853D01*
X231889860Y-113093047D01*
X232925596Y-113093951D01*
X233882838Y-112698427D01*
X234615853Y-111966690D01*
X234621000Y-111954295D01*
X234621000Y-127594908D01*
X233004908Y-129211000D01*
X213146092Y-129211000D01*
X211149000Y-127213908D01*
X211149000Y-125371661D01*
X218312758Y-125371661D01*
X218524990Y-125885303D01*
X218917630Y-126278629D01*
X219430900Y-126491757D01*
X219986661Y-126492242D01*
X220500303Y-126280010D01*
X220893629Y-125887370D01*
X221106757Y-125374100D01*
X221106759Y-125371661D01*
X228472758Y-125371661D01*
X228684990Y-125885303D01*
X229077630Y-126278629D01*
X229590900Y-126491757D01*
X230146661Y-126492242D01*
X230660303Y-126280010D01*
X231053629Y-125887370D01*
X231266757Y-125374100D01*
X231267242Y-124818339D01*
X231055010Y-124304697D01*
X230662370Y-123911371D01*
X230149100Y-123698243D01*
X229593339Y-123697758D01*
X229079697Y-123909990D01*
X228686371Y-124302630D01*
X228473243Y-124815900D01*
X228472758Y-125371661D01*
X221106759Y-125371661D01*
X221107242Y-124818339D01*
X220895010Y-124304697D01*
X220502370Y-123911371D01*
X219989100Y-123698243D01*
X219433339Y-123697758D01*
X218919697Y-123909990D01*
X218526371Y-124302630D01*
X218313243Y-124815900D01*
X218312758Y-125371661D01*
X211149000Y-125371661D01*
X211149000Y-117795000D01*
X218062560Y-117795000D01*
X218062560Y-119695000D01*
X218106838Y-119930317D01*
X218245910Y-120146441D01*
X218458110Y-120291431D01*
X218461192Y-120292055D01*
X218367086Y-120385997D01*
X218125276Y-120968341D01*
X218124725Y-121598893D01*
X218365519Y-122181657D01*
X218810997Y-122627914D01*
X219393341Y-122869724D01*
X220023893Y-122870275D01*
X220606657Y-122629481D01*
X221052914Y-122184003D01*
X221294724Y-121601659D01*
X221295275Y-120971107D01*
X221054481Y-120388343D01*
X220956971Y-120290663D01*
X221161441Y-120159090D01*
X221306431Y-119946890D01*
X221357440Y-119695000D01*
X221357440Y-117795000D01*
X221313162Y-117559683D01*
X221174090Y-117343559D01*
X220961890Y-117198569D01*
X220710000Y-117147560D01*
X218710000Y-117147560D01*
X218474683Y-117191838D01*
X218258559Y-117330910D01*
X218113569Y-117543110D01*
X218062560Y-117795000D01*
X211149000Y-117795000D01*
X211149000Y-115846661D01*
X228472758Y-115846661D01*
X228684990Y-116360303D01*
X229077630Y-116753629D01*
X229285512Y-116839949D01*
X229079697Y-116924990D01*
X228686371Y-117317630D01*
X228473243Y-117830900D01*
X228472758Y-118386661D01*
X228684990Y-118900303D01*
X229077630Y-119293629D01*
X229285512Y-119379949D01*
X229079697Y-119464990D01*
X228686371Y-119857630D01*
X228473243Y-120370900D01*
X228472758Y-120926661D01*
X228684990Y-121440303D01*
X229077630Y-121833629D01*
X229590900Y-122046757D01*
X230146661Y-122047242D01*
X230660303Y-121835010D01*
X230865457Y-121630213D01*
X231609392Y-121630213D01*
X231678857Y-121872397D01*
X232202302Y-122059144D01*
X232757368Y-122031362D01*
X233141143Y-121872397D01*
X233210608Y-121630213D01*
X232410000Y-120829605D01*
X231609392Y-121630213D01*
X230865457Y-121630213D01*
X231053629Y-121442370D01*
X231133395Y-121250273D01*
X231187603Y-121381143D01*
X231429787Y-121450608D01*
X232230395Y-120650000D01*
X232589605Y-120650000D01*
X233390213Y-121450608D01*
X233632397Y-121381143D01*
X233819144Y-120857698D01*
X233791362Y-120302632D01*
X233632397Y-119918857D01*
X233390213Y-119849392D01*
X232589605Y-120650000D01*
X232230395Y-120650000D01*
X231429787Y-119849392D01*
X231187603Y-119918857D01*
X231137491Y-120059318D01*
X231055010Y-119859697D01*
X230662370Y-119466371D01*
X230454488Y-119380051D01*
X230660303Y-119295010D01*
X231053629Y-118902370D01*
X231139949Y-118694488D01*
X231224990Y-118900303D01*
X231617630Y-119293629D01*
X231809727Y-119373395D01*
X231678857Y-119427603D01*
X231609392Y-119669787D01*
X232410000Y-120470395D01*
X233210608Y-119669787D01*
X233141143Y-119427603D01*
X233000682Y-119377491D01*
X233200303Y-119295010D01*
X233593629Y-118902370D01*
X233806757Y-118389100D01*
X233807242Y-117833339D01*
X233595010Y-117319697D01*
X233202370Y-116926371D01*
X232994488Y-116840051D01*
X233200303Y-116755010D01*
X233593629Y-116362370D01*
X233806757Y-115849100D01*
X233807242Y-115293339D01*
X233595010Y-114779697D01*
X233202370Y-114386371D01*
X232689100Y-114173243D01*
X232133339Y-114172758D01*
X231619697Y-114384990D01*
X231226371Y-114777630D01*
X231140051Y-114985512D01*
X231055010Y-114779697D01*
X230662370Y-114386371D01*
X230149100Y-114173243D01*
X229593339Y-114172758D01*
X229079697Y-114384990D01*
X228686371Y-114777630D01*
X228473243Y-115290900D01*
X228472758Y-115846661D01*
X211149000Y-115846661D01*
X211149000Y-108861661D01*
X219582758Y-108861661D01*
X219794990Y-109375303D01*
X220187630Y-109768629D01*
X220700900Y-109981757D01*
X221256661Y-109982242D01*
X221770303Y-109770010D01*
X222163629Y-109377370D01*
X222376757Y-108864100D01*
X222377242Y-108308339D01*
X222165010Y-107794697D01*
X221772370Y-107401371D01*
X221259100Y-107188243D01*
X220703339Y-107187758D01*
X220189697Y-107399990D01*
X219796371Y-107792630D01*
X219583243Y-108305900D01*
X219582758Y-108861661D01*
X211149000Y-108861661D01*
X211149000Y-105410000D01*
X223741655Y-105410000D01*
X223855729Y-105983489D01*
X224180585Y-106469670D01*
X224666766Y-106794526D01*
X225240255Y-106908600D01*
X225609745Y-106908600D01*
X226183234Y-106794526D01*
X226669415Y-106469670D01*
X226994271Y-105983489D01*
X227108345Y-105410000D01*
X226994271Y-104836511D01*
X226669415Y-104350330D01*
X226359931Y-104143539D01*
X226775732Y-103772036D01*
X227029709Y-103244791D01*
X227032358Y-103229026D01*
X226911217Y-102997000D01*
X225552000Y-102997000D01*
X225552000Y-103017000D01*
X225298000Y-103017000D01*
X225298000Y-102997000D01*
X223938783Y-102997000D01*
X223817642Y-103229026D01*
X223820291Y-103244791D01*
X224074268Y-103772036D01*
X224490069Y-104143539D01*
X224180585Y-104350330D01*
X223855729Y-104836511D01*
X223741655Y-105410000D01*
X211149000Y-105410000D01*
X211149000Y-98701661D01*
X219582758Y-98701661D01*
X219794990Y-99215303D01*
X220187630Y-99608629D01*
X220700900Y-99821757D01*
X221256661Y-99822242D01*
X221770303Y-99610010D01*
X221914163Y-99466400D01*
X223761560Y-99466400D01*
X223761560Y-101193600D01*
X223805838Y-101428917D01*
X223944910Y-101645041D01*
X224157110Y-101790031D01*
X224251927Y-101809232D01*
X224074268Y-101967964D01*
X223820291Y-102495209D01*
X223817642Y-102510974D01*
X223938783Y-102743000D01*
X225298000Y-102743000D01*
X225298000Y-102723000D01*
X225552000Y-102723000D01*
X225552000Y-102743000D01*
X226911217Y-102743000D01*
X227032358Y-102510974D01*
X227029709Y-102495209D01*
X226775732Y-101967964D01*
X226600155Y-101811093D01*
X226676317Y-101796762D01*
X226892441Y-101657690D01*
X227037431Y-101445490D01*
X227088440Y-101193600D01*
X227088440Y-99466400D01*
X227044162Y-99231083D01*
X226905090Y-99014959D01*
X226692890Y-98869969D01*
X226441000Y-98818960D01*
X224409000Y-98818960D01*
X224173683Y-98863238D01*
X223957559Y-99002310D01*
X223812569Y-99214510D01*
X223761560Y-99466400D01*
X221914163Y-99466400D01*
X222163629Y-99217370D01*
X222376757Y-98704100D01*
X222377242Y-98148339D01*
X222165010Y-97634697D01*
X221772370Y-97241371D01*
X221259100Y-97028243D01*
X220703339Y-97027758D01*
X220189697Y-97239990D01*
X219796371Y-97632630D01*
X219583243Y-98145900D01*
X219582758Y-98701661D01*
X211149000Y-98701661D01*
X211149000Y-96814439D01*
X211555391Y-97085981D01*
X212090000Y-97192321D01*
X212624609Y-97085981D01*
X213077828Y-96783149D01*
X213360000Y-96360850D01*
X213642172Y-96783149D01*
X214095391Y-97085981D01*
X214630000Y-97192321D01*
X215164609Y-97085981D01*
X215617828Y-96783149D01*
X215900000Y-96360850D01*
X216182172Y-96783149D01*
X216635391Y-97085981D01*
X217170000Y-97192321D01*
X217704609Y-97085981D01*
X218157828Y-96783149D01*
X218440000Y-96360850D01*
X218722172Y-96783149D01*
X219175391Y-97085981D01*
X219710000Y-97192321D01*
X220244609Y-97085981D01*
X220697828Y-96783149D01*
X220980000Y-96360850D01*
X221262172Y-96783149D01*
X221715391Y-97085981D01*
X222250000Y-97192321D01*
X222784609Y-97085981D01*
X223237828Y-96783149D01*
X223520000Y-96360850D01*
X223802172Y-96783149D01*
X224255391Y-97085981D01*
X224790000Y-97192321D01*
X225324609Y-97085981D01*
X225777828Y-96783149D01*
X226060000Y-96360850D01*
X226342172Y-96783149D01*
X226795391Y-97085981D01*
X227330000Y-97192321D01*
X227864609Y-97085981D01*
X228317828Y-96783149D01*
X228600000Y-96360850D01*
X228882172Y-96783149D01*
X229335391Y-97085981D01*
X229870000Y-97192321D01*
X230404609Y-97085981D01*
X230857828Y-96783149D01*
X231160660Y-96329930D01*
X231267000Y-95795321D01*
X231267000Y-94704679D01*
X231160660Y-94170070D01*
X230857828Y-93716851D01*
X230404609Y-93414019D01*
X229870000Y-93307679D01*
X229335391Y-93414019D01*
X228882172Y-93716851D01*
X228600000Y-94139150D01*
X228317828Y-93716851D01*
X227864609Y-93414019D01*
X227330000Y-93307679D01*
X226795391Y-93414019D01*
X226342172Y-93716851D01*
X226060000Y-94139150D01*
X225777828Y-93716851D01*
X225324609Y-93414019D01*
X224790000Y-93307679D01*
X224255391Y-93414019D01*
X223802172Y-93716851D01*
X223520000Y-94139150D01*
X223237828Y-93716851D01*
X222784609Y-93414019D01*
X222250000Y-93307679D01*
X221715391Y-93414019D01*
X221262172Y-93716851D01*
X220980000Y-94139150D01*
X220697828Y-93716851D01*
X220244609Y-93414019D01*
X219710000Y-93307679D01*
X219175391Y-93414019D01*
X218722172Y-93716851D01*
X218440000Y-94139150D01*
X218157828Y-93716851D01*
X217704609Y-93414019D01*
X217170000Y-93307679D01*
X216635391Y-93414019D01*
X216182172Y-93716851D01*
X215900000Y-94139150D01*
X215617828Y-93716851D01*
X215164609Y-93414019D01*
X214630000Y-93307679D01*
X214095391Y-93414019D01*
X213642172Y-93716851D01*
X213360000Y-94139150D01*
X213077828Y-93716851D01*
X212624609Y-93414019D01*
X212090000Y-93307679D01*
X211555391Y-93414019D01*
X211149000Y-93685561D01*
X211149000Y-93166000D01*
X231226908Y-93166000D01*
X232081000Y-94020092D01*
X232081000Y-94020092D01*
G37*
X232081000Y-94020092D02*
X232081000Y-105156000D01*
X232135046Y-105427705D01*
X232288954Y-105658046D01*
X234621000Y-107990092D01*
X234621000Y-109023389D01*
X234618427Y-109017162D01*
X233886690Y-108284147D01*
X232930140Y-107886953D01*
X231894404Y-107886049D01*
X230937162Y-108281573D01*
X230204147Y-109013310D01*
X229806953Y-109969860D01*
X229806049Y-111005596D01*
X230201573Y-111962838D01*
X230933310Y-112695853D01*
X231889860Y-113093047D01*
X232925596Y-113093951D01*
X233882838Y-112698427D01*
X234615853Y-111966690D01*
X234621000Y-111954295D01*
X234621000Y-127594908D01*
X233004908Y-129211000D01*
X213146092Y-129211000D01*
X211149000Y-127213908D01*
X211149000Y-125371661D01*
X218312758Y-125371661D01*
X218524990Y-125885303D01*
X218917630Y-126278629D01*
X219430900Y-126491757D01*
X219986661Y-126492242D01*
X220500303Y-126280010D01*
X220893629Y-125887370D01*
X221106757Y-125374100D01*
X221106759Y-125371661D01*
X228472758Y-125371661D01*
X228684990Y-125885303D01*
X229077630Y-126278629D01*
X229590900Y-126491757D01*
X230146661Y-126492242D01*
X230660303Y-126280010D01*
X231053629Y-125887370D01*
X231266757Y-125374100D01*
X231267242Y-124818339D01*
X231055010Y-124304697D01*
X230662370Y-123911371D01*
X230149100Y-123698243D01*
X229593339Y-123697758D01*
X229079697Y-123909990D01*
X228686371Y-124302630D01*
X228473243Y-124815900D01*
X228472758Y-125371661D01*
X221106759Y-125371661D01*
X221107242Y-124818339D01*
X220895010Y-124304697D01*
X220502370Y-123911371D01*
X219989100Y-123698243D01*
X219433339Y-123697758D01*
X218919697Y-123909990D01*
X218526371Y-124302630D01*
X218313243Y-124815900D01*
X218312758Y-125371661D01*
X211149000Y-125371661D01*
X211149000Y-117795000D01*
X218062560Y-117795000D01*
X218062560Y-119695000D01*
X218106838Y-119930317D01*
X218245910Y-120146441D01*
X218458110Y-120291431D01*
X218461192Y-120292055D01*
X218367086Y-120385997D01*
X218125276Y-120968341D01*
X218124725Y-121598893D01*
X218365519Y-122181657D01*
X218810997Y-122627914D01*
X219393341Y-122869724D01*
X220023893Y-122870275D01*
X220606657Y-122629481D01*
X221052914Y-122184003D01*
X221294724Y-121601659D01*
X221295275Y-120971107D01*
X221054481Y-120388343D01*
X220956971Y-120290663D01*
X221161441Y-120159090D01*
X221306431Y-119946890D01*
X221357440Y-119695000D01*
X221357440Y-117795000D01*
X221313162Y-117559683D01*
X221174090Y-117343559D01*
X220961890Y-117198569D01*
X220710000Y-117147560D01*
X218710000Y-117147560D01*
X218474683Y-117191838D01*
X218258559Y-117330910D01*
X218113569Y-117543110D01*
X218062560Y-117795000D01*
X211149000Y-117795000D01*
X211149000Y-115846661D01*
X228472758Y-115846661D01*
X228684990Y-116360303D01*
X229077630Y-116753629D01*
X229285512Y-116839949D01*
X229079697Y-116924990D01*
X228686371Y-117317630D01*
X228473243Y-117830900D01*
X228472758Y-118386661D01*
X228684990Y-118900303D01*
X229077630Y-119293629D01*
X229285512Y-119379949D01*
X229079697Y-119464990D01*
X228686371Y-119857630D01*
X228473243Y-120370900D01*
X228472758Y-120926661D01*
X228684990Y-121440303D01*
X229077630Y-121833629D01*
X229590900Y-122046757D01*
X230146661Y-122047242D01*
X230660303Y-121835010D01*
X230865457Y-121630213D01*
X231609392Y-121630213D01*
X231678857Y-121872397D01*
X232202302Y-122059144D01*
X232757368Y-122031362D01*
X233141143Y-121872397D01*
X233210608Y-121630213D01*
X232410000Y-120829605D01*
X231609392Y-121630213D01*
X230865457Y-121630213D01*
X231053629Y-121442370D01*
X231133395Y-121250273D01*
X231187603Y-121381143D01*
X231429787Y-121450608D01*
X232230395Y-120650000D01*
X232589605Y-120650000D01*
X233390213Y-121450608D01*
X233632397Y-121381143D01*
X233819144Y-120857698D01*
X233791362Y-120302632D01*
X233632397Y-119918857D01*
X233390213Y-119849392D01*
X232589605Y-120650000D01*
X232230395Y-120650000D01*
X231429787Y-119849392D01*
X231187603Y-119918857D01*
X231137491Y-120059318D01*
X231055010Y-119859697D01*
X230662370Y-119466371D01*
X230454488Y-119380051D01*
X230660303Y-119295010D01*
X231053629Y-118902370D01*
X231139949Y-118694488D01*
X231224990Y-118900303D01*
X231617630Y-119293629D01*
X231809727Y-119373395D01*
X231678857Y-119427603D01*
X231609392Y-119669787D01*
X232410000Y-120470395D01*
X233210608Y-119669787D01*
X233141143Y-119427603D01*
X233000682Y-119377491D01*
X233200303Y-119295010D01*
X233593629Y-118902370D01*
X233806757Y-118389100D01*
X233807242Y-117833339D01*
X233595010Y-117319697D01*
X233202370Y-116926371D01*
X232994488Y-116840051D01*
X233200303Y-116755010D01*
X233593629Y-116362370D01*
X233806757Y-115849100D01*
X233807242Y-115293339D01*
X233595010Y-114779697D01*
X233202370Y-114386371D01*
X232689100Y-114173243D01*
X232133339Y-114172758D01*
X231619697Y-114384990D01*
X231226371Y-114777630D01*
X231140051Y-114985512D01*
X231055010Y-114779697D01*
X230662370Y-114386371D01*
X230149100Y-114173243D01*
X229593339Y-114172758D01*
X229079697Y-114384990D01*
X228686371Y-114777630D01*
X228473243Y-115290900D01*
X228472758Y-115846661D01*
X211149000Y-115846661D01*
X211149000Y-108861661D01*
X219582758Y-108861661D01*
X219794990Y-109375303D01*
X220187630Y-109768629D01*
X220700900Y-109981757D01*
X221256661Y-109982242D01*
X221770303Y-109770010D01*
X222163629Y-109377370D01*
X222376757Y-108864100D01*
X222377242Y-108308339D01*
X222165010Y-107794697D01*
X221772370Y-107401371D01*
X221259100Y-107188243D01*
X220703339Y-107187758D01*
X220189697Y-107399990D01*
X219796371Y-107792630D01*
X219583243Y-108305900D01*
X219582758Y-108861661D01*
X211149000Y-108861661D01*
X211149000Y-105410000D01*
X223741655Y-105410000D01*
X223855729Y-105983489D01*
X224180585Y-106469670D01*
X224666766Y-106794526D01*
X225240255Y-106908600D01*
X225609745Y-106908600D01*
X226183234Y-106794526D01*
X226669415Y-106469670D01*
X226994271Y-105983489D01*
X227108345Y-105410000D01*
X226994271Y-104836511D01*
X226669415Y-104350330D01*
X226359931Y-104143539D01*
X226775732Y-103772036D01*
X227029709Y-103244791D01*
X227032358Y-103229026D01*
X226911217Y-102997000D01*
X225552000Y-102997000D01*
X225552000Y-103017000D01*
X225298000Y-103017000D01*
X225298000Y-102997000D01*
X223938783Y-102997000D01*
X223817642Y-103229026D01*
X223820291Y-103244791D01*
X224074268Y-103772036D01*
X224490069Y-104143539D01*
X224180585Y-104350330D01*
X223855729Y-104836511D01*
X223741655Y-105410000D01*
X211149000Y-105410000D01*
X211149000Y-98701661D01*
X219582758Y-98701661D01*
X219794990Y-99215303D01*
X220187630Y-99608629D01*
X220700900Y-99821757D01*
X221256661Y-99822242D01*
X221770303Y-99610010D01*
X221914163Y-99466400D01*
X223761560Y-99466400D01*
X223761560Y-101193600D01*
X223805838Y-101428917D01*
X223944910Y-101645041D01*
X224157110Y-101790031D01*
X224251927Y-101809232D01*
X224074268Y-101967964D01*
X223820291Y-102495209D01*
X223817642Y-102510974D01*
X223938783Y-102743000D01*
X225298000Y-102743000D01*
X225298000Y-102723000D01*
X225552000Y-102723000D01*
X225552000Y-102743000D01*
X226911217Y-102743000D01*
X227032358Y-102510974D01*
X227029709Y-102495209D01*
X226775732Y-101967964D01*
X226600155Y-101811093D01*
X226676317Y-101796762D01*
X226892441Y-101657690D01*
X227037431Y-101445490D01*
X227088440Y-101193600D01*
X227088440Y-99466400D01*
X227044162Y-99231083D01*
X226905090Y-99014959D01*
X226692890Y-98869969D01*
X226441000Y-98818960D01*
X224409000Y-98818960D01*
X224173683Y-98863238D01*
X223957559Y-99002310D01*
X223812569Y-99214510D01*
X223761560Y-99466400D01*
X221914163Y-99466400D01*
X222163629Y-99217370D01*
X222376757Y-98704100D01*
X222377242Y-98148339D01*
X222165010Y-97634697D01*
X221772370Y-97241371D01*
X221259100Y-97028243D01*
X220703339Y-97027758D01*
X220189697Y-97239990D01*
X219796371Y-97632630D01*
X219583243Y-98145900D01*
X219582758Y-98701661D01*
X211149000Y-98701661D01*
X211149000Y-96814439D01*
X211555391Y-97085981D01*
X212090000Y-97192321D01*
X212624609Y-97085981D01*
X213077828Y-96783149D01*
X213360000Y-96360850D01*
X213642172Y-96783149D01*
X214095391Y-97085981D01*
X214630000Y-97192321D01*
X215164609Y-97085981D01*
X215617828Y-96783149D01*
X215900000Y-96360850D01*
X216182172Y-96783149D01*
X216635391Y-97085981D01*
X217170000Y-97192321D01*
X217704609Y-97085981D01*
X218157828Y-96783149D01*
X218440000Y-96360850D01*
X218722172Y-96783149D01*
X219175391Y-97085981D01*
X219710000Y-97192321D01*
X220244609Y-97085981D01*
X220697828Y-96783149D01*
X220980000Y-96360850D01*
X221262172Y-96783149D01*
X221715391Y-97085981D01*
X222250000Y-97192321D01*
X222784609Y-97085981D01*
X223237828Y-96783149D01*
X223520000Y-96360850D01*
X223802172Y-96783149D01*
X224255391Y-97085981D01*
X224790000Y-97192321D01*
X225324609Y-97085981D01*
X225777828Y-96783149D01*
X226060000Y-96360850D01*
X226342172Y-96783149D01*
X226795391Y-97085981D01*
X227330000Y-97192321D01*
X227864609Y-97085981D01*
X228317828Y-96783149D01*
X228600000Y-96360850D01*
X228882172Y-96783149D01*
X229335391Y-97085981D01*
X229870000Y-97192321D01*
X230404609Y-97085981D01*
X230857828Y-96783149D01*
X231160660Y-96329930D01*
X231267000Y-95795321D01*
X231267000Y-94704679D01*
X231160660Y-94170070D01*
X230857828Y-93716851D01*
X230404609Y-93414019D01*
X229870000Y-93307679D01*
X229335391Y-93414019D01*
X228882172Y-93716851D01*
X228600000Y-94139150D01*
X228317828Y-93716851D01*
X227864609Y-93414019D01*
X227330000Y-93307679D01*
X226795391Y-93414019D01*
X226342172Y-93716851D01*
X226060000Y-94139150D01*
X225777828Y-93716851D01*
X225324609Y-93414019D01*
X224790000Y-93307679D01*
X224255391Y-93414019D01*
X223802172Y-93716851D01*
X223520000Y-94139150D01*
X223237828Y-93716851D01*
X222784609Y-93414019D01*
X222250000Y-93307679D01*
X221715391Y-93414019D01*
X221262172Y-93716851D01*
X220980000Y-94139150D01*
X220697828Y-93716851D01*
X220244609Y-93414019D01*
X219710000Y-93307679D01*
X219175391Y-93414019D01*
X218722172Y-93716851D01*
X218440000Y-94139150D01*
X218157828Y-93716851D01*
X217704609Y-93414019D01*
X217170000Y-93307679D01*
X216635391Y-93414019D01*
X216182172Y-93716851D01*
X215900000Y-94139150D01*
X215617828Y-93716851D01*
X215164609Y-93414019D01*
X214630000Y-93307679D01*
X214095391Y-93414019D01*
X213642172Y-93716851D01*
X213360000Y-94139150D01*
X213077828Y-93716851D01*
X212624609Y-93414019D01*
X212090000Y-93307679D01*
X211555391Y-93414019D01*
X211149000Y-93685561D01*
X211149000Y-93166000D01*
X231226908Y-93166000D01*
X232081000Y-94020092D01*
M02*
