G04 #@! TF.FileFunction,Copper,L1,Top,Signal*
%FSLAX46Y46*%
G04 Gerber Fmt 4.6, Leading zero omitted, Abs format (unit mm)*
G04 Created by KiCad (PCBNEW 4.0.2-stable) date 2016/6/2 上午 01:45:21*
%MOMM*%
G01*
G04 APERTURE LIST*
%ADD10C,0.100000*%
%ADD11O,1.524000X2.199640*%
%ADD12O,1.524000X2.197100*%
%ADD13R,2.000000X1.900000*%
%ADD14C,1.900000*%
%ADD15R,0.800100X0.800100*%
%ADD16C,1.524000*%
%ADD17R,2.032000X1.727200*%
%ADD18O,2.032000X1.727200*%
%ADD19C,0.400000*%
%ADD20C,0.254000*%
G04 APERTURE END LIST*
D10*
D11*
X194700501Y-143265501D03*
X197240501Y-143265501D03*
X199780501Y-143265501D03*
X202320501Y-143265501D03*
X204860501Y-143265501D03*
X207400501Y-143265501D03*
X209940501Y-143265501D03*
X212480501Y-143265501D03*
X217560501Y-143265501D03*
X220100501Y-143265501D03*
X222640501Y-143265501D03*
X225180501Y-143265501D03*
X227720501Y-143265501D03*
X230260501Y-143265501D03*
D12*
X230260501Y-95005501D03*
X227720501Y-95005501D03*
X225180501Y-95005501D03*
X222640501Y-95005501D03*
X220100501Y-95005501D03*
X217560501Y-95005501D03*
X215020501Y-95005501D03*
X212480501Y-95005501D03*
D13*
X219710000Y-118745000D03*
D14*
X219710000Y-121285000D03*
D15*
X220660000Y-111394240D03*
X218760000Y-111394240D03*
X219710000Y-113393220D03*
D16*
X220980000Y-108585000D03*
X220980000Y-98425000D03*
X219710000Y-135255000D03*
X219710000Y-125095000D03*
D17*
X225425000Y-100330000D03*
D18*
X225425000Y-102870000D03*
X225425000Y-105410000D03*
D19*
X219710000Y-118745000D02*
X219710000Y-113393220D01*
X219710000Y-125095000D02*
X219710000Y-121285000D01*
X219710000Y-135255000D02*
X222885000Y-135255000D01*
X225425000Y-132715000D02*
X225425000Y-105410000D01*
X222885000Y-135255000D02*
X225425000Y-132715000D01*
X204860501Y-143265501D02*
X204860501Y-138674499D01*
X208280000Y-135255000D02*
X219710000Y-135255000D01*
X204860501Y-138674499D02*
X208280000Y-135255000D01*
X207400501Y-143265501D02*
X209940501Y-143265501D01*
X218760000Y-111394240D02*
X218760000Y-104455000D01*
X220345000Y-102870000D02*
X225425000Y-102870000D01*
X218760000Y-104455000D02*
X220345000Y-102870000D01*
X225425000Y-100330000D02*
X225425000Y-95250000D01*
X225425000Y-95250000D02*
X225180501Y-95005501D01*
X220980000Y-98425000D02*
X222250000Y-98425000D01*
X222640501Y-98034499D02*
X222640501Y-95005501D01*
X222250000Y-98425000D02*
X222640501Y-98034499D01*
X220980000Y-108585000D02*
X220980000Y-111074240D01*
X220980000Y-111074240D02*
X220660000Y-111394240D01*
D20*
G36*
X232081000Y-94020092D02*
X232081000Y-105156000D01*
X232135046Y-105427705D01*
X232288954Y-105658046D01*
X234621000Y-107990092D01*
X234621000Y-108907166D01*
X234067573Y-108352772D01*
X233246807Y-108011960D01*
X232358094Y-108011184D01*
X231536735Y-108350563D01*
X230907772Y-108978429D01*
X230566960Y-109799195D01*
X230566184Y-110687908D01*
X230905563Y-111509267D01*
X231533429Y-112138230D01*
X232354195Y-112479042D01*
X233242908Y-112479818D01*
X234064267Y-112140439D01*
X234621000Y-111584677D01*
X234621000Y-136847166D01*
X234067573Y-136292772D01*
X233246807Y-135951960D01*
X232358094Y-135951184D01*
X231536735Y-136290563D01*
X230907772Y-136918429D01*
X230566960Y-137739195D01*
X230566184Y-138627908D01*
X230905563Y-139449267D01*
X231533429Y-140078230D01*
X232354195Y-140419042D01*
X233242908Y-140419818D01*
X234064267Y-140080439D01*
X234621000Y-139524677D01*
X234621000Y-140421909D01*
X232288954Y-142753954D01*
X232135046Y-142984295D01*
X232081000Y-143256000D01*
X232081000Y-144358908D01*
X231353908Y-145086000D01*
X193334091Y-145086000D01*
X193242000Y-144993908D01*
X193242000Y-142893694D01*
X193303501Y-142893694D01*
X193303501Y-143637308D01*
X193409841Y-144171917D01*
X193712673Y-144625136D01*
X194165892Y-144927968D01*
X194700501Y-145034308D01*
X195235110Y-144927968D01*
X195688329Y-144625136D01*
X195970501Y-144202837D01*
X196252673Y-144625136D01*
X196705892Y-144927968D01*
X197240501Y-145034308D01*
X197775110Y-144927968D01*
X198228329Y-144625136D01*
X198510501Y-144202837D01*
X198792673Y-144625136D01*
X199245892Y-144927968D01*
X199780501Y-145034308D01*
X200315110Y-144927968D01*
X200768329Y-144625136D01*
X201050501Y-144202837D01*
X201332673Y-144625136D01*
X201785892Y-144927968D01*
X202320501Y-145034308D01*
X202855110Y-144927968D01*
X203308329Y-144625136D01*
X203590501Y-144202837D01*
X203872673Y-144625136D01*
X204325892Y-144927968D01*
X204860501Y-145034308D01*
X205395110Y-144927968D01*
X205848329Y-144625136D01*
X206139148Y-144189895D01*
X206158442Y-144255262D01*
X206502475Y-144680951D01*
X206983224Y-144942581D01*
X207057431Y-144957541D01*
X207273501Y-144835041D01*
X207273501Y-143392501D01*
X207527501Y-143392501D01*
X207527501Y-144835041D01*
X207743571Y-144957541D01*
X207817778Y-144942581D01*
X208298527Y-144680951D01*
X208642560Y-144255262D01*
X208670501Y-144160598D01*
X208698442Y-144255262D01*
X209042475Y-144680951D01*
X209523224Y-144942581D01*
X209597431Y-144957541D01*
X209813501Y-144835041D01*
X209813501Y-143392501D01*
X207527501Y-143392501D01*
X207273501Y-143392501D01*
X207253501Y-143392501D01*
X207253501Y-143138501D01*
X207273501Y-143138501D01*
X207273501Y-141695961D01*
X207527501Y-141695961D01*
X207527501Y-143138501D01*
X209813501Y-143138501D01*
X209813501Y-141695961D01*
X210067501Y-141695961D01*
X210067501Y-143138501D01*
X210087501Y-143138501D01*
X210087501Y-143392501D01*
X210067501Y-143392501D01*
X210067501Y-144835041D01*
X210283571Y-144957541D01*
X210357778Y-144942581D01*
X210838527Y-144680951D01*
X211182560Y-144255262D01*
X211201854Y-144189895D01*
X211492673Y-144625136D01*
X211945892Y-144927968D01*
X212480501Y-145034308D01*
X213015110Y-144927968D01*
X213468329Y-144625136D01*
X213771161Y-144171917D01*
X213877501Y-143637308D01*
X213877501Y-142893694D01*
X216163501Y-142893694D01*
X216163501Y-143637308D01*
X216269841Y-144171917D01*
X216572673Y-144625136D01*
X217025892Y-144927968D01*
X217560501Y-145034308D01*
X218095110Y-144927968D01*
X218548329Y-144625136D01*
X218830501Y-144202837D01*
X219112673Y-144625136D01*
X219565892Y-144927968D01*
X220100501Y-145034308D01*
X220635110Y-144927968D01*
X221088329Y-144625136D01*
X221370501Y-144202837D01*
X221652673Y-144625136D01*
X222105892Y-144927968D01*
X222640501Y-145034308D01*
X223175110Y-144927968D01*
X223628329Y-144625136D01*
X223910501Y-144202837D01*
X224192673Y-144625136D01*
X224645892Y-144927968D01*
X225180501Y-145034308D01*
X225715110Y-144927968D01*
X226168329Y-144625136D01*
X226450501Y-144202837D01*
X226732673Y-144625136D01*
X227185892Y-144927968D01*
X227720501Y-145034308D01*
X228255110Y-144927968D01*
X228708329Y-144625136D01*
X228990501Y-144202837D01*
X229272673Y-144625136D01*
X229725892Y-144927968D01*
X230260501Y-145034308D01*
X230795110Y-144927968D01*
X231248329Y-144625136D01*
X231551161Y-144171917D01*
X231657501Y-143637308D01*
X231657501Y-142893694D01*
X231551161Y-142359085D01*
X231248329Y-141905866D01*
X230795110Y-141603034D01*
X230260501Y-141496694D01*
X229725892Y-141603034D01*
X229272673Y-141905866D01*
X228990501Y-142328165D01*
X228708329Y-141905866D01*
X228255110Y-141603034D01*
X227720501Y-141496694D01*
X227185892Y-141603034D01*
X226732673Y-141905866D01*
X226450501Y-142328165D01*
X226168329Y-141905866D01*
X225715110Y-141603034D01*
X225180501Y-141496694D01*
X224645892Y-141603034D01*
X224192673Y-141905866D01*
X223910501Y-142328165D01*
X223628329Y-141905866D01*
X223175110Y-141603034D01*
X222640501Y-141496694D01*
X222105892Y-141603034D01*
X221652673Y-141905866D01*
X221370501Y-142328165D01*
X221088329Y-141905866D01*
X220635110Y-141603034D01*
X220100501Y-141496694D01*
X219565892Y-141603034D01*
X219112673Y-141905866D01*
X218830501Y-142328165D01*
X218548329Y-141905866D01*
X218095110Y-141603034D01*
X217560501Y-141496694D01*
X217025892Y-141603034D01*
X216572673Y-141905866D01*
X216269841Y-142359085D01*
X216163501Y-142893694D01*
X213877501Y-142893694D01*
X213771161Y-142359085D01*
X213468329Y-141905866D01*
X213015110Y-141603034D01*
X212480501Y-141496694D01*
X211945892Y-141603034D01*
X211492673Y-141905866D01*
X211201854Y-142341107D01*
X211182560Y-142275740D01*
X210838527Y-141850051D01*
X210357778Y-141588421D01*
X210283571Y-141573461D01*
X210067501Y-141695961D01*
X209813501Y-141695961D01*
X209597431Y-141573461D01*
X209523224Y-141588421D01*
X209042475Y-141850051D01*
X208698442Y-142275740D01*
X208670501Y-142370404D01*
X208642560Y-142275740D01*
X208298527Y-141850051D01*
X207817778Y-141588421D01*
X207743571Y-141573461D01*
X207527501Y-141695961D01*
X207273501Y-141695961D01*
X207057431Y-141573461D01*
X206983224Y-141588421D01*
X206502475Y-141850051D01*
X206158442Y-142275740D01*
X206139148Y-142341107D01*
X205848329Y-141905866D01*
X205695501Y-141803749D01*
X205695501Y-139020367D01*
X208625868Y-136090000D01*
X218569609Y-136090000D01*
X218917630Y-136438629D01*
X219430900Y-136651757D01*
X219986661Y-136652242D01*
X220500303Y-136440010D01*
X220850925Y-136090000D01*
X222885000Y-136090000D01*
X223204541Y-136026439D01*
X223475434Y-135845434D01*
X226015434Y-133305434D01*
X226196439Y-133034541D01*
X226260000Y-132715000D01*
X226260000Y-106743233D01*
X226669415Y-106469670D01*
X226994271Y-105983489D01*
X227108345Y-105410000D01*
X226994271Y-104836511D01*
X226669415Y-104350330D01*
X226359931Y-104143539D01*
X226775732Y-103772036D01*
X227029709Y-103244791D01*
X227032358Y-103229026D01*
X226911217Y-102997000D01*
X225552000Y-102997000D01*
X225552000Y-103017000D01*
X225298000Y-103017000D01*
X225298000Y-102997000D01*
X223938783Y-102997000D01*
X223817642Y-103229026D01*
X223820291Y-103244791D01*
X224074268Y-103772036D01*
X224490069Y-104143539D01*
X224180585Y-104350330D01*
X223855729Y-104836511D01*
X223741655Y-105410000D01*
X223855729Y-105983489D01*
X224180585Y-106469670D01*
X224590000Y-106743233D01*
X224590000Y-132369132D01*
X222539132Y-134420000D01*
X220850391Y-134420000D01*
X220502370Y-134071371D01*
X219989100Y-133858243D01*
X219433339Y-133857758D01*
X218919697Y-134069990D01*
X218569075Y-134420000D01*
X208280000Y-134420000D01*
X207960459Y-134483561D01*
X207689566Y-134664566D01*
X204270067Y-138084065D01*
X204089062Y-138354958D01*
X204025501Y-138674499D01*
X204025501Y-141803749D01*
X203872673Y-141905866D01*
X203590501Y-142328165D01*
X203308329Y-141905866D01*
X202855110Y-141603034D01*
X202320501Y-141496694D01*
X201785892Y-141603034D01*
X201332673Y-141905866D01*
X201050501Y-142328165D01*
X200768329Y-141905866D01*
X200315110Y-141603034D01*
X199780501Y-141496694D01*
X199245892Y-141603034D01*
X198792673Y-141905866D01*
X198510501Y-142328165D01*
X198228329Y-141905866D01*
X197775110Y-141603034D01*
X197240501Y-141496694D01*
X196705892Y-141603034D01*
X196252673Y-141905866D01*
X195970501Y-142328165D01*
X195688329Y-141905866D01*
X195235110Y-141603034D01*
X194700501Y-141496694D01*
X194165892Y-141603034D01*
X193712673Y-141905866D01*
X193409841Y-142359085D01*
X193303501Y-142893694D01*
X193242000Y-142893694D01*
X193242000Y-139867092D01*
X210941046Y-122168046D01*
X211094954Y-121937705D01*
X211149001Y-121666000D01*
X211149000Y-121665995D01*
X211149000Y-117795000D01*
X218062560Y-117795000D01*
X218062560Y-119695000D01*
X218106838Y-119930317D01*
X218245910Y-120146441D01*
X218458110Y-120291431D01*
X218461192Y-120292055D01*
X218367086Y-120385997D01*
X218125276Y-120968341D01*
X218124725Y-121598893D01*
X218365519Y-122181657D01*
X218810997Y-122627914D01*
X218875000Y-122654490D01*
X218875000Y-123954609D01*
X218526371Y-124302630D01*
X218313243Y-124815900D01*
X218312758Y-125371661D01*
X218524990Y-125885303D01*
X218917630Y-126278629D01*
X219430900Y-126491757D01*
X219986661Y-126492242D01*
X220500303Y-126280010D01*
X220893629Y-125887370D01*
X221106757Y-125374100D01*
X221107242Y-124818339D01*
X220895010Y-124304697D01*
X220545000Y-123954075D01*
X220545000Y-122654957D01*
X220606657Y-122629481D01*
X221052914Y-122184003D01*
X221294724Y-121601659D01*
X221295275Y-120971107D01*
X221054481Y-120388343D01*
X220956971Y-120290663D01*
X221161441Y-120159090D01*
X221306431Y-119946890D01*
X221357440Y-119695000D01*
X221357440Y-117795000D01*
X221313162Y-117559683D01*
X221174090Y-117343559D01*
X220961890Y-117198569D01*
X220710000Y-117147560D01*
X220545000Y-117147560D01*
X220545000Y-114267972D01*
X220561491Y-114257360D01*
X220706481Y-114045160D01*
X220757490Y-113793270D01*
X220757490Y-112993170D01*
X220713212Y-112757853D01*
X220574140Y-112541729D01*
X220427787Y-112441730D01*
X221060050Y-112441730D01*
X221295367Y-112397452D01*
X221511491Y-112258380D01*
X221656481Y-112046180D01*
X221707490Y-111794290D01*
X221707490Y-111459555D01*
X221751439Y-111393781D01*
X221815000Y-111074240D01*
X221815000Y-109725391D01*
X222163629Y-109377370D01*
X222376757Y-108864100D01*
X222377242Y-108308339D01*
X222165010Y-107794697D01*
X221772370Y-107401371D01*
X221259100Y-107188243D01*
X220703339Y-107187758D01*
X220189697Y-107399990D01*
X219796371Y-107792630D01*
X219583243Y-108305900D01*
X219582758Y-108861661D01*
X219794990Y-109375303D01*
X220145000Y-109725925D01*
X220145000Y-110368379D01*
X220024633Y-110391028D01*
X219808509Y-110530100D01*
X219713023Y-110669849D01*
X219698377Y-110634491D01*
X219519748Y-110455863D01*
X219286359Y-110359190D01*
X219045750Y-110359190D01*
X218887000Y-110517940D01*
X218887000Y-111267240D01*
X218907000Y-111267240D01*
X218907000Y-111521240D01*
X218887000Y-111521240D01*
X218887000Y-112270540D01*
X219033157Y-112416697D01*
X218858509Y-112529080D01*
X218713519Y-112741280D01*
X218662510Y-112993170D01*
X218662510Y-113793270D01*
X218706788Y-114028587D01*
X218845860Y-114244711D01*
X218875000Y-114264622D01*
X218875000Y-117147560D01*
X218710000Y-117147560D01*
X218474683Y-117191838D01*
X218258559Y-117330910D01*
X218113569Y-117543110D01*
X218062560Y-117795000D01*
X211149000Y-117795000D01*
X211149000Y-111679990D01*
X217724950Y-111679990D01*
X217724950Y-111920600D01*
X217821623Y-112153989D01*
X218000252Y-112332617D01*
X218233641Y-112429290D01*
X218474250Y-112429290D01*
X218633000Y-112270540D01*
X218633000Y-111521240D01*
X217883700Y-111521240D01*
X217724950Y-111679990D01*
X211149000Y-111679990D01*
X211149000Y-110867880D01*
X217724950Y-110867880D01*
X217724950Y-111108490D01*
X217883700Y-111267240D01*
X218633000Y-111267240D01*
X218633000Y-110517940D01*
X218474250Y-110359190D01*
X218233641Y-110359190D01*
X218000252Y-110455863D01*
X217821623Y-110634491D01*
X217724950Y-110867880D01*
X211149000Y-110867880D01*
X211149000Y-95705300D01*
X211189841Y-95910622D01*
X211492673Y-96363841D01*
X211945892Y-96666673D01*
X212480501Y-96773013D01*
X213015110Y-96666673D01*
X213468329Y-96363841D01*
X213750501Y-95941542D01*
X214032673Y-96363841D01*
X214485892Y-96666673D01*
X215020501Y-96773013D01*
X215555110Y-96666673D01*
X216008329Y-96363841D01*
X216290501Y-95941542D01*
X216572673Y-96363841D01*
X217025892Y-96666673D01*
X217560501Y-96773013D01*
X218095110Y-96666673D01*
X218548329Y-96363841D01*
X218830501Y-95941542D01*
X219112673Y-96363841D01*
X219565892Y-96666673D01*
X220100501Y-96773013D01*
X220635110Y-96666673D01*
X221088329Y-96363841D01*
X221370501Y-95941542D01*
X221652673Y-96363841D01*
X221805501Y-96465958D01*
X221805501Y-97274560D01*
X221772370Y-97241371D01*
X221259100Y-97028243D01*
X220703339Y-97027758D01*
X220189697Y-97239990D01*
X219796371Y-97632630D01*
X219583243Y-98145900D01*
X219582758Y-98701661D01*
X219794990Y-99215303D01*
X220187630Y-99608629D01*
X220700900Y-99821757D01*
X221256661Y-99822242D01*
X221770303Y-99610010D01*
X222120925Y-99260000D01*
X222250000Y-99260000D01*
X222569541Y-99196439D01*
X222840434Y-99015434D01*
X223230935Y-98624933D01*
X223364526Y-98425000D01*
X223411940Y-98354040D01*
X223475501Y-98034499D01*
X223475501Y-96465958D01*
X223628329Y-96363841D01*
X223910501Y-95941542D01*
X224192673Y-96363841D01*
X224590000Y-96629327D01*
X224590000Y-98818960D01*
X224409000Y-98818960D01*
X224173683Y-98863238D01*
X223957559Y-99002310D01*
X223812569Y-99214510D01*
X223761560Y-99466400D01*
X223761560Y-101193600D01*
X223805838Y-101428917D01*
X223944910Y-101645041D01*
X224157110Y-101790031D01*
X224251927Y-101809232D01*
X224074268Y-101967964D01*
X223820291Y-102495209D01*
X223817642Y-102510974D01*
X223938783Y-102743000D01*
X225298000Y-102743000D01*
X225298000Y-102723000D01*
X225552000Y-102723000D01*
X225552000Y-102743000D01*
X226911217Y-102743000D01*
X227032358Y-102510974D01*
X227029709Y-102495209D01*
X226775732Y-101967964D01*
X226600155Y-101811093D01*
X226676317Y-101796762D01*
X226892441Y-101657690D01*
X227037431Y-101445490D01*
X227088440Y-101193600D01*
X227088440Y-99466400D01*
X227044162Y-99231083D01*
X226905090Y-99014959D01*
X226692890Y-98869969D01*
X226441000Y-98818960D01*
X226260000Y-98818960D01*
X226260000Y-96226646D01*
X226450501Y-95941542D01*
X226732673Y-96363841D01*
X227185892Y-96666673D01*
X227720501Y-96773013D01*
X228255110Y-96666673D01*
X228708329Y-96363841D01*
X228990501Y-95941542D01*
X229272673Y-96363841D01*
X229725892Y-96666673D01*
X230260501Y-96773013D01*
X230795110Y-96666673D01*
X231248329Y-96363841D01*
X231551161Y-95910622D01*
X231657501Y-95376013D01*
X231657501Y-94634989D01*
X231551161Y-94100380D01*
X231248329Y-93647161D01*
X230795110Y-93344329D01*
X230260501Y-93237989D01*
X229725892Y-93344329D01*
X229272673Y-93647161D01*
X228990501Y-94069460D01*
X228708329Y-93647161D01*
X228255110Y-93344329D01*
X227720501Y-93237989D01*
X227185892Y-93344329D01*
X226732673Y-93647161D01*
X226450501Y-94069460D01*
X226168329Y-93647161D01*
X225715110Y-93344329D01*
X225180501Y-93237989D01*
X224645892Y-93344329D01*
X224192673Y-93647161D01*
X223910501Y-94069460D01*
X223628329Y-93647161D01*
X223175110Y-93344329D01*
X222640501Y-93237989D01*
X222105892Y-93344329D01*
X221652673Y-93647161D01*
X221370501Y-94069460D01*
X221088329Y-93647161D01*
X220635110Y-93344329D01*
X220100501Y-93237989D01*
X219565892Y-93344329D01*
X219112673Y-93647161D01*
X218830501Y-94069460D01*
X218548329Y-93647161D01*
X218095110Y-93344329D01*
X217560501Y-93237989D01*
X217025892Y-93344329D01*
X216572673Y-93647161D01*
X216290501Y-94069460D01*
X216008329Y-93647161D01*
X215555110Y-93344329D01*
X215020501Y-93237989D01*
X214485892Y-93344329D01*
X214032673Y-93647161D01*
X213750501Y-94069460D01*
X213468329Y-93647161D01*
X213015110Y-93344329D01*
X212480501Y-93237989D01*
X211945892Y-93344329D01*
X211492673Y-93647161D01*
X211189841Y-94100380D01*
X211149000Y-94305702D01*
X211149000Y-93166000D01*
X231226908Y-93166000D01*
X232081000Y-94020092D01*
X232081000Y-94020092D01*
G37*
X232081000Y-94020092D02*
X232081000Y-105156000D01*
X232135046Y-105427705D01*
X232288954Y-105658046D01*
X234621000Y-107990092D01*
X234621000Y-108907166D01*
X234067573Y-108352772D01*
X233246807Y-108011960D01*
X232358094Y-108011184D01*
X231536735Y-108350563D01*
X230907772Y-108978429D01*
X230566960Y-109799195D01*
X230566184Y-110687908D01*
X230905563Y-111509267D01*
X231533429Y-112138230D01*
X232354195Y-112479042D01*
X233242908Y-112479818D01*
X234064267Y-112140439D01*
X234621000Y-111584677D01*
X234621000Y-136847166D01*
X234067573Y-136292772D01*
X233246807Y-135951960D01*
X232358094Y-135951184D01*
X231536735Y-136290563D01*
X230907772Y-136918429D01*
X230566960Y-137739195D01*
X230566184Y-138627908D01*
X230905563Y-139449267D01*
X231533429Y-140078230D01*
X232354195Y-140419042D01*
X233242908Y-140419818D01*
X234064267Y-140080439D01*
X234621000Y-139524677D01*
X234621000Y-140421909D01*
X232288954Y-142753954D01*
X232135046Y-142984295D01*
X232081000Y-143256000D01*
X232081000Y-144358908D01*
X231353908Y-145086000D01*
X193334091Y-145086000D01*
X193242000Y-144993908D01*
X193242000Y-142893694D01*
X193303501Y-142893694D01*
X193303501Y-143637308D01*
X193409841Y-144171917D01*
X193712673Y-144625136D01*
X194165892Y-144927968D01*
X194700501Y-145034308D01*
X195235110Y-144927968D01*
X195688329Y-144625136D01*
X195970501Y-144202837D01*
X196252673Y-144625136D01*
X196705892Y-144927968D01*
X197240501Y-145034308D01*
X197775110Y-144927968D01*
X198228329Y-144625136D01*
X198510501Y-144202837D01*
X198792673Y-144625136D01*
X199245892Y-144927968D01*
X199780501Y-145034308D01*
X200315110Y-144927968D01*
X200768329Y-144625136D01*
X201050501Y-144202837D01*
X201332673Y-144625136D01*
X201785892Y-144927968D01*
X202320501Y-145034308D01*
X202855110Y-144927968D01*
X203308329Y-144625136D01*
X203590501Y-144202837D01*
X203872673Y-144625136D01*
X204325892Y-144927968D01*
X204860501Y-145034308D01*
X205395110Y-144927968D01*
X205848329Y-144625136D01*
X206139148Y-144189895D01*
X206158442Y-144255262D01*
X206502475Y-144680951D01*
X206983224Y-144942581D01*
X207057431Y-144957541D01*
X207273501Y-144835041D01*
X207273501Y-143392501D01*
X207527501Y-143392501D01*
X207527501Y-144835041D01*
X207743571Y-144957541D01*
X207817778Y-144942581D01*
X208298527Y-144680951D01*
X208642560Y-144255262D01*
X208670501Y-144160598D01*
X208698442Y-144255262D01*
X209042475Y-144680951D01*
X209523224Y-144942581D01*
X209597431Y-144957541D01*
X209813501Y-144835041D01*
X209813501Y-143392501D01*
X207527501Y-143392501D01*
X207273501Y-143392501D01*
X207253501Y-143392501D01*
X207253501Y-143138501D01*
X207273501Y-143138501D01*
X207273501Y-141695961D01*
X207527501Y-141695961D01*
X207527501Y-143138501D01*
X209813501Y-143138501D01*
X209813501Y-141695961D01*
X210067501Y-141695961D01*
X210067501Y-143138501D01*
X210087501Y-143138501D01*
X210087501Y-143392501D01*
X210067501Y-143392501D01*
X210067501Y-144835041D01*
X210283571Y-144957541D01*
X210357778Y-144942581D01*
X210838527Y-144680951D01*
X211182560Y-144255262D01*
X211201854Y-144189895D01*
X211492673Y-144625136D01*
X211945892Y-144927968D01*
X212480501Y-145034308D01*
X213015110Y-144927968D01*
X213468329Y-144625136D01*
X213771161Y-144171917D01*
X213877501Y-143637308D01*
X213877501Y-142893694D01*
X216163501Y-142893694D01*
X216163501Y-143637308D01*
X216269841Y-144171917D01*
X216572673Y-144625136D01*
X217025892Y-144927968D01*
X217560501Y-145034308D01*
X218095110Y-144927968D01*
X218548329Y-144625136D01*
X218830501Y-144202837D01*
X219112673Y-144625136D01*
X219565892Y-144927968D01*
X220100501Y-145034308D01*
X220635110Y-144927968D01*
X221088329Y-144625136D01*
X221370501Y-144202837D01*
X221652673Y-144625136D01*
X222105892Y-144927968D01*
X222640501Y-145034308D01*
X223175110Y-144927968D01*
X223628329Y-144625136D01*
X223910501Y-144202837D01*
X224192673Y-144625136D01*
X224645892Y-144927968D01*
X225180501Y-145034308D01*
X225715110Y-144927968D01*
X226168329Y-144625136D01*
X226450501Y-144202837D01*
X226732673Y-144625136D01*
X227185892Y-144927968D01*
X227720501Y-145034308D01*
X228255110Y-144927968D01*
X228708329Y-144625136D01*
X228990501Y-144202837D01*
X229272673Y-144625136D01*
X229725892Y-144927968D01*
X230260501Y-145034308D01*
X230795110Y-144927968D01*
X231248329Y-144625136D01*
X231551161Y-144171917D01*
X231657501Y-143637308D01*
X231657501Y-142893694D01*
X231551161Y-142359085D01*
X231248329Y-141905866D01*
X230795110Y-141603034D01*
X230260501Y-141496694D01*
X229725892Y-141603034D01*
X229272673Y-141905866D01*
X228990501Y-142328165D01*
X228708329Y-141905866D01*
X228255110Y-141603034D01*
X227720501Y-141496694D01*
X227185892Y-141603034D01*
X226732673Y-141905866D01*
X226450501Y-142328165D01*
X226168329Y-141905866D01*
X225715110Y-141603034D01*
X225180501Y-141496694D01*
X224645892Y-141603034D01*
X224192673Y-141905866D01*
X223910501Y-142328165D01*
X223628329Y-141905866D01*
X223175110Y-141603034D01*
X222640501Y-141496694D01*
X222105892Y-141603034D01*
X221652673Y-141905866D01*
X221370501Y-142328165D01*
X221088329Y-141905866D01*
X220635110Y-141603034D01*
X220100501Y-141496694D01*
X219565892Y-141603034D01*
X219112673Y-141905866D01*
X218830501Y-142328165D01*
X218548329Y-141905866D01*
X218095110Y-141603034D01*
X217560501Y-141496694D01*
X217025892Y-141603034D01*
X216572673Y-141905866D01*
X216269841Y-142359085D01*
X216163501Y-142893694D01*
X213877501Y-142893694D01*
X213771161Y-142359085D01*
X213468329Y-141905866D01*
X213015110Y-141603034D01*
X212480501Y-141496694D01*
X211945892Y-141603034D01*
X211492673Y-141905866D01*
X211201854Y-142341107D01*
X211182560Y-142275740D01*
X210838527Y-141850051D01*
X210357778Y-141588421D01*
X210283571Y-141573461D01*
X210067501Y-141695961D01*
X209813501Y-141695961D01*
X209597431Y-141573461D01*
X209523224Y-141588421D01*
X209042475Y-141850051D01*
X208698442Y-142275740D01*
X208670501Y-142370404D01*
X208642560Y-142275740D01*
X208298527Y-141850051D01*
X207817778Y-141588421D01*
X207743571Y-141573461D01*
X207527501Y-141695961D01*
X207273501Y-141695961D01*
X207057431Y-141573461D01*
X206983224Y-141588421D01*
X206502475Y-141850051D01*
X206158442Y-142275740D01*
X206139148Y-142341107D01*
X205848329Y-141905866D01*
X205695501Y-141803749D01*
X205695501Y-139020367D01*
X208625868Y-136090000D01*
X218569609Y-136090000D01*
X218917630Y-136438629D01*
X219430900Y-136651757D01*
X219986661Y-136652242D01*
X220500303Y-136440010D01*
X220850925Y-136090000D01*
X222885000Y-136090000D01*
X223204541Y-136026439D01*
X223475434Y-135845434D01*
X226015434Y-133305434D01*
X226196439Y-133034541D01*
X226260000Y-132715000D01*
X226260000Y-106743233D01*
X226669415Y-106469670D01*
X226994271Y-105983489D01*
X227108345Y-105410000D01*
X226994271Y-104836511D01*
X226669415Y-104350330D01*
X226359931Y-104143539D01*
X226775732Y-103772036D01*
X227029709Y-103244791D01*
X227032358Y-103229026D01*
X226911217Y-102997000D01*
X225552000Y-102997000D01*
X225552000Y-103017000D01*
X225298000Y-103017000D01*
X225298000Y-102997000D01*
X223938783Y-102997000D01*
X223817642Y-103229026D01*
X223820291Y-103244791D01*
X224074268Y-103772036D01*
X224490069Y-104143539D01*
X224180585Y-104350330D01*
X223855729Y-104836511D01*
X223741655Y-105410000D01*
X223855729Y-105983489D01*
X224180585Y-106469670D01*
X224590000Y-106743233D01*
X224590000Y-132369132D01*
X222539132Y-134420000D01*
X220850391Y-134420000D01*
X220502370Y-134071371D01*
X219989100Y-133858243D01*
X219433339Y-133857758D01*
X218919697Y-134069990D01*
X218569075Y-134420000D01*
X208280000Y-134420000D01*
X207960459Y-134483561D01*
X207689566Y-134664566D01*
X204270067Y-138084065D01*
X204089062Y-138354958D01*
X204025501Y-138674499D01*
X204025501Y-141803749D01*
X203872673Y-141905866D01*
X203590501Y-142328165D01*
X203308329Y-141905866D01*
X202855110Y-141603034D01*
X202320501Y-141496694D01*
X201785892Y-141603034D01*
X201332673Y-141905866D01*
X201050501Y-142328165D01*
X200768329Y-141905866D01*
X200315110Y-141603034D01*
X199780501Y-141496694D01*
X199245892Y-141603034D01*
X198792673Y-141905866D01*
X198510501Y-142328165D01*
X198228329Y-141905866D01*
X197775110Y-141603034D01*
X197240501Y-141496694D01*
X196705892Y-141603034D01*
X196252673Y-141905866D01*
X195970501Y-142328165D01*
X195688329Y-141905866D01*
X195235110Y-141603034D01*
X194700501Y-141496694D01*
X194165892Y-141603034D01*
X193712673Y-141905866D01*
X193409841Y-142359085D01*
X193303501Y-142893694D01*
X193242000Y-142893694D01*
X193242000Y-139867092D01*
X210941046Y-122168046D01*
X211094954Y-121937705D01*
X211149001Y-121666000D01*
X211149000Y-121665995D01*
X211149000Y-117795000D01*
X218062560Y-117795000D01*
X218062560Y-119695000D01*
X218106838Y-119930317D01*
X218245910Y-120146441D01*
X218458110Y-120291431D01*
X218461192Y-120292055D01*
X218367086Y-120385997D01*
X218125276Y-120968341D01*
X218124725Y-121598893D01*
X218365519Y-122181657D01*
X218810997Y-122627914D01*
X218875000Y-122654490D01*
X218875000Y-123954609D01*
X218526371Y-124302630D01*
X218313243Y-124815900D01*
X218312758Y-125371661D01*
X218524990Y-125885303D01*
X218917630Y-126278629D01*
X219430900Y-126491757D01*
X219986661Y-126492242D01*
X220500303Y-126280010D01*
X220893629Y-125887370D01*
X221106757Y-125374100D01*
X221107242Y-124818339D01*
X220895010Y-124304697D01*
X220545000Y-123954075D01*
X220545000Y-122654957D01*
X220606657Y-122629481D01*
X221052914Y-122184003D01*
X221294724Y-121601659D01*
X221295275Y-120971107D01*
X221054481Y-120388343D01*
X220956971Y-120290663D01*
X221161441Y-120159090D01*
X221306431Y-119946890D01*
X221357440Y-119695000D01*
X221357440Y-117795000D01*
X221313162Y-117559683D01*
X221174090Y-117343559D01*
X220961890Y-117198569D01*
X220710000Y-117147560D01*
X220545000Y-117147560D01*
X220545000Y-114267972D01*
X220561491Y-114257360D01*
X220706481Y-114045160D01*
X220757490Y-113793270D01*
X220757490Y-112993170D01*
X220713212Y-112757853D01*
X220574140Y-112541729D01*
X220427787Y-112441730D01*
X221060050Y-112441730D01*
X221295367Y-112397452D01*
X221511491Y-112258380D01*
X221656481Y-112046180D01*
X221707490Y-111794290D01*
X221707490Y-111459555D01*
X221751439Y-111393781D01*
X221815000Y-111074240D01*
X221815000Y-109725391D01*
X222163629Y-109377370D01*
X222376757Y-108864100D01*
X222377242Y-108308339D01*
X222165010Y-107794697D01*
X221772370Y-107401371D01*
X221259100Y-107188243D01*
X220703339Y-107187758D01*
X220189697Y-107399990D01*
X219796371Y-107792630D01*
X219583243Y-108305900D01*
X219582758Y-108861661D01*
X219794990Y-109375303D01*
X220145000Y-109725925D01*
X220145000Y-110368379D01*
X220024633Y-110391028D01*
X219808509Y-110530100D01*
X219713023Y-110669849D01*
X219698377Y-110634491D01*
X219519748Y-110455863D01*
X219286359Y-110359190D01*
X219045750Y-110359190D01*
X218887000Y-110517940D01*
X218887000Y-111267240D01*
X218907000Y-111267240D01*
X218907000Y-111521240D01*
X218887000Y-111521240D01*
X218887000Y-112270540D01*
X219033157Y-112416697D01*
X218858509Y-112529080D01*
X218713519Y-112741280D01*
X218662510Y-112993170D01*
X218662510Y-113793270D01*
X218706788Y-114028587D01*
X218845860Y-114244711D01*
X218875000Y-114264622D01*
X218875000Y-117147560D01*
X218710000Y-117147560D01*
X218474683Y-117191838D01*
X218258559Y-117330910D01*
X218113569Y-117543110D01*
X218062560Y-117795000D01*
X211149000Y-117795000D01*
X211149000Y-111679990D01*
X217724950Y-111679990D01*
X217724950Y-111920600D01*
X217821623Y-112153989D01*
X218000252Y-112332617D01*
X218233641Y-112429290D01*
X218474250Y-112429290D01*
X218633000Y-112270540D01*
X218633000Y-111521240D01*
X217883700Y-111521240D01*
X217724950Y-111679990D01*
X211149000Y-111679990D01*
X211149000Y-110867880D01*
X217724950Y-110867880D01*
X217724950Y-111108490D01*
X217883700Y-111267240D01*
X218633000Y-111267240D01*
X218633000Y-110517940D01*
X218474250Y-110359190D01*
X218233641Y-110359190D01*
X218000252Y-110455863D01*
X217821623Y-110634491D01*
X217724950Y-110867880D01*
X211149000Y-110867880D01*
X211149000Y-95705300D01*
X211189841Y-95910622D01*
X211492673Y-96363841D01*
X211945892Y-96666673D01*
X212480501Y-96773013D01*
X213015110Y-96666673D01*
X213468329Y-96363841D01*
X213750501Y-95941542D01*
X214032673Y-96363841D01*
X214485892Y-96666673D01*
X215020501Y-96773013D01*
X215555110Y-96666673D01*
X216008329Y-96363841D01*
X216290501Y-95941542D01*
X216572673Y-96363841D01*
X217025892Y-96666673D01*
X217560501Y-96773013D01*
X218095110Y-96666673D01*
X218548329Y-96363841D01*
X218830501Y-95941542D01*
X219112673Y-96363841D01*
X219565892Y-96666673D01*
X220100501Y-96773013D01*
X220635110Y-96666673D01*
X221088329Y-96363841D01*
X221370501Y-95941542D01*
X221652673Y-96363841D01*
X221805501Y-96465958D01*
X221805501Y-97274560D01*
X221772370Y-97241371D01*
X221259100Y-97028243D01*
X220703339Y-97027758D01*
X220189697Y-97239990D01*
X219796371Y-97632630D01*
X219583243Y-98145900D01*
X219582758Y-98701661D01*
X219794990Y-99215303D01*
X220187630Y-99608629D01*
X220700900Y-99821757D01*
X221256661Y-99822242D01*
X221770303Y-99610010D01*
X222120925Y-99260000D01*
X222250000Y-99260000D01*
X222569541Y-99196439D01*
X222840434Y-99015434D01*
X223230935Y-98624933D01*
X223364526Y-98425000D01*
X223411940Y-98354040D01*
X223475501Y-98034499D01*
X223475501Y-96465958D01*
X223628329Y-96363841D01*
X223910501Y-95941542D01*
X224192673Y-96363841D01*
X224590000Y-96629327D01*
X224590000Y-98818960D01*
X224409000Y-98818960D01*
X224173683Y-98863238D01*
X223957559Y-99002310D01*
X223812569Y-99214510D01*
X223761560Y-99466400D01*
X223761560Y-101193600D01*
X223805838Y-101428917D01*
X223944910Y-101645041D01*
X224157110Y-101790031D01*
X224251927Y-101809232D01*
X224074268Y-101967964D01*
X223820291Y-102495209D01*
X223817642Y-102510974D01*
X223938783Y-102743000D01*
X225298000Y-102743000D01*
X225298000Y-102723000D01*
X225552000Y-102723000D01*
X225552000Y-102743000D01*
X226911217Y-102743000D01*
X227032358Y-102510974D01*
X227029709Y-102495209D01*
X226775732Y-101967964D01*
X226600155Y-101811093D01*
X226676317Y-101796762D01*
X226892441Y-101657690D01*
X227037431Y-101445490D01*
X227088440Y-101193600D01*
X227088440Y-99466400D01*
X227044162Y-99231083D01*
X226905090Y-99014959D01*
X226692890Y-98869969D01*
X226441000Y-98818960D01*
X226260000Y-98818960D01*
X226260000Y-96226646D01*
X226450501Y-95941542D01*
X226732673Y-96363841D01*
X227185892Y-96666673D01*
X227720501Y-96773013D01*
X228255110Y-96666673D01*
X228708329Y-96363841D01*
X228990501Y-95941542D01*
X229272673Y-96363841D01*
X229725892Y-96666673D01*
X230260501Y-96773013D01*
X230795110Y-96666673D01*
X231248329Y-96363841D01*
X231551161Y-95910622D01*
X231657501Y-95376013D01*
X231657501Y-94634989D01*
X231551161Y-94100380D01*
X231248329Y-93647161D01*
X230795110Y-93344329D01*
X230260501Y-93237989D01*
X229725892Y-93344329D01*
X229272673Y-93647161D01*
X228990501Y-94069460D01*
X228708329Y-93647161D01*
X228255110Y-93344329D01*
X227720501Y-93237989D01*
X227185892Y-93344329D01*
X226732673Y-93647161D01*
X226450501Y-94069460D01*
X226168329Y-93647161D01*
X225715110Y-93344329D01*
X225180501Y-93237989D01*
X224645892Y-93344329D01*
X224192673Y-93647161D01*
X223910501Y-94069460D01*
X223628329Y-93647161D01*
X223175110Y-93344329D01*
X222640501Y-93237989D01*
X222105892Y-93344329D01*
X221652673Y-93647161D01*
X221370501Y-94069460D01*
X221088329Y-93647161D01*
X220635110Y-93344329D01*
X220100501Y-93237989D01*
X219565892Y-93344329D01*
X219112673Y-93647161D01*
X218830501Y-94069460D01*
X218548329Y-93647161D01*
X218095110Y-93344329D01*
X217560501Y-93237989D01*
X217025892Y-93344329D01*
X216572673Y-93647161D01*
X216290501Y-94069460D01*
X216008329Y-93647161D01*
X215555110Y-93344329D01*
X215020501Y-93237989D01*
X214485892Y-93344329D01*
X214032673Y-93647161D01*
X213750501Y-94069460D01*
X213468329Y-93647161D01*
X213015110Y-93344329D01*
X212480501Y-93237989D01*
X211945892Y-93344329D01*
X211492673Y-93647161D01*
X211189841Y-94100380D01*
X211149000Y-94305702D01*
X211149000Y-93166000D01*
X231226908Y-93166000D01*
X232081000Y-94020092D01*
M02*
