M48
INCH,TZ
T1C0.032
T2C0.039
T3C0.039
T4C0.040
%
G90
G05
T1
X86500Y-49250
X86500Y-53250
X87000Y-38750
X87000Y-42750
T2
X83654Y-37404
X84654Y-37404
X85654Y-37404
X86654Y-37404
X87654Y-37404
X88654Y-37404
X89654Y-37404
X90654Y-37404
T3
X76654Y-56404
X77654Y-56404
X78654Y-56404
X79654Y-56404
X80654Y-56404
X81654Y-56404
X82654Y-56404
X83654Y-56404
X85654Y-56404
X86500Y-46750
X86500Y-47750
X86654Y-56404
X87654Y-56404
X88654Y-56404
X89654Y-56404
X90654Y-56404
T4
X88750Y-39500
X88750Y-40500
X88750Y-41500
T0
M30
