G04 #@! TF.FileFunction,Legend,Top*
%FSLAX46Y46*%
G04 Gerber Fmt 4.6, Leading zero omitted, Abs format (unit mm)*
G04 Created by KiCad (PCBNEW 4.0.2-stable) date 2016/6/3 下午 03:13:17*
%MOMM*%
G01*
G04 APERTURE LIST*
%ADD10C,0.100000*%
%ADD11C,0.150000*%
%ADD12C,0.304800*%
G04 APERTURE END LIST*
D10*
D11*
X218410840Y-113045240D02*
X218459100Y-113045240D01*
X221209820Y-112344200D02*
X221209820Y-113045240D01*
X221209820Y-113045240D02*
X220960900Y-113045240D01*
X218410840Y-113045240D02*
X218210180Y-113045240D01*
X218210180Y-113045240D02*
X218210180Y-112344200D01*
X220980000Y-108585000D02*
X220980000Y-107569000D01*
X220980000Y-107569000D02*
X219964000Y-107569000D01*
X219964000Y-107569000D02*
X219964000Y-99441000D01*
X219964000Y-99441000D02*
X221996000Y-99441000D01*
X221996000Y-99441000D02*
X221996000Y-107569000D01*
X221996000Y-107569000D02*
X220980000Y-107569000D01*
X220472000Y-107569000D02*
X219964000Y-107061000D01*
X220980000Y-98425000D02*
X220980000Y-99441000D01*
X229870000Y-125095000D02*
X228854000Y-125095000D01*
X228854000Y-125095000D02*
X228854000Y-126111000D01*
X228854000Y-126111000D02*
X220726000Y-126111000D01*
X220726000Y-126111000D02*
X220726000Y-124079000D01*
X220726000Y-124079000D02*
X228854000Y-124079000D01*
X228854000Y-124079000D02*
X228854000Y-125095000D01*
X228854000Y-125603000D02*
X228346000Y-126111000D01*
X219710000Y-125095000D02*
X220726000Y-125095000D01*
X224155000Y-101600000D02*
X224155000Y-106680000D01*
X224155000Y-106680000D02*
X226695000Y-106680000D01*
X226695000Y-106680000D02*
X226695000Y-101600000D01*
X226975000Y-98780000D02*
X226975000Y-100330000D01*
X226695000Y-101600000D02*
X224155000Y-101600000D01*
X223875000Y-100330000D02*
X223875000Y-98780000D01*
X223875000Y-98780000D02*
X226975000Y-98780000D01*
X218185096Y-117530112D02*
G75*
G03X221210000Y-117515000I1524904J-2484888D01*
G01*
X218210000Y-117515000D02*
X221210000Y-117515000D01*
X222227936Y-120015000D02*
G75*
G03X222227936Y-120015000I-2517936J0D01*
G01*
D12*
X221669429Y-99676857D02*
X221887143Y-99749429D01*
X222250000Y-99749429D01*
X222395143Y-99676857D01*
X222467714Y-99604286D01*
X222540286Y-99459143D01*
X222540286Y-99314000D01*
X222467714Y-99168857D01*
X222395143Y-99096286D01*
X222250000Y-99023714D01*
X221959714Y-98951143D01*
X221814572Y-98878571D01*
X221742000Y-98806000D01*
X221669429Y-98660857D01*
X221669429Y-98515714D01*
X221742000Y-98370571D01*
X221814572Y-98298000D01*
X221959714Y-98225429D01*
X222322572Y-98225429D01*
X222540286Y-98298000D01*
X223193429Y-99749429D02*
X223193429Y-98225429D01*
X223193429Y-98951143D02*
X224064286Y-98951143D01*
X224064286Y-99749429D02*
X224064286Y-98225429D01*
X224790000Y-99749429D02*
X224790000Y-98225429D01*
X225515714Y-98951143D02*
X226023714Y-98951143D01*
X226241428Y-99749429D02*
X225515714Y-99749429D01*
X225515714Y-98225429D01*
X226241428Y-98225429D01*
X227620285Y-99749429D02*
X226894571Y-99749429D01*
X226894571Y-98225429D01*
X228128285Y-99749429D02*
X228128285Y-98225429D01*
X228491142Y-98225429D01*
X228708857Y-98298000D01*
X228853999Y-98443143D01*
X228926571Y-98588286D01*
X228999142Y-98878571D01*
X228999142Y-99096286D01*
X228926571Y-99386571D01*
X228853999Y-99531714D01*
X228708857Y-99676857D01*
X228491142Y-99749429D01*
X228128285Y-99749429D01*
X230450571Y-99749429D02*
X229579714Y-99749429D01*
X230015142Y-99749429D02*
X230015142Y-98225429D01*
X229869999Y-98443143D01*
X229724857Y-98588286D01*
X229579714Y-98660857D01*
D11*
X219614762Y-115192619D02*
X219519524Y-115145000D01*
X219424286Y-115049762D01*
X219281429Y-114906905D01*
X219186190Y-114859286D01*
X219090952Y-114859286D01*
X219138571Y-115097381D02*
X219043333Y-115049762D01*
X218948095Y-114954524D01*
X218900476Y-114764048D01*
X218900476Y-114430714D01*
X218948095Y-114240238D01*
X219043333Y-114145000D01*
X219138571Y-114097381D01*
X219329048Y-114097381D01*
X219424286Y-114145000D01*
X219519524Y-114240238D01*
X219567143Y-114430714D01*
X219567143Y-114764048D01*
X219519524Y-114954524D01*
X219424286Y-115049762D01*
X219329048Y-115097381D01*
X219138571Y-115097381D01*
X220519524Y-115097381D02*
X219948095Y-115097381D01*
X220233809Y-115097381D02*
X220233809Y-114097381D01*
X220138571Y-114240238D01*
X220043333Y-114335476D01*
X219948095Y-114383095D01*
X221432381Y-103671666D02*
X220956190Y-104005000D01*
X221432381Y-104243095D02*
X220432381Y-104243095D01*
X220432381Y-103862142D01*
X220480000Y-103766904D01*
X220527619Y-103719285D01*
X220622857Y-103671666D01*
X220765714Y-103671666D01*
X220860952Y-103719285D01*
X220908571Y-103766904D01*
X220956190Y-103862142D01*
X220956190Y-104243095D01*
X221432381Y-102719285D02*
X221432381Y-103290714D01*
X221432381Y-103005000D02*
X220432381Y-103005000D01*
X220575238Y-103100238D01*
X220670476Y-103195476D01*
X220718095Y-103290714D01*
X224623334Y-125547381D02*
X224290000Y-125071190D01*
X224051905Y-125547381D02*
X224051905Y-124547381D01*
X224432858Y-124547381D01*
X224528096Y-124595000D01*
X224575715Y-124642619D01*
X224623334Y-124737857D01*
X224623334Y-124880714D01*
X224575715Y-124975952D01*
X224528096Y-125023571D01*
X224432858Y-125071190D01*
X224051905Y-125071190D01*
X225004286Y-124642619D02*
X225051905Y-124595000D01*
X225147143Y-124547381D01*
X225385239Y-124547381D01*
X225480477Y-124595000D01*
X225528096Y-124642619D01*
X225575715Y-124737857D01*
X225575715Y-124833095D01*
X225528096Y-124975952D01*
X224956667Y-125547381D01*
X225575715Y-125547381D01*
X224663095Y-94682381D02*
X224663095Y-95491905D01*
X224710714Y-95587143D01*
X224758333Y-95634762D01*
X224853571Y-95682381D01*
X225044048Y-95682381D01*
X225139286Y-95634762D01*
X225186905Y-95587143D01*
X225234524Y-95491905D01*
X225234524Y-94682381D01*
X226234524Y-95682381D02*
X225663095Y-95682381D01*
X225948809Y-95682381D02*
X225948809Y-94682381D01*
X225853571Y-94825238D01*
X225758333Y-94920476D01*
X225663095Y-94968095D01*
X216098381Y-121007095D02*
X215098381Y-121007095D01*
X215098381Y-120769000D01*
X215146000Y-120626142D01*
X215241238Y-120530904D01*
X215336476Y-120483285D01*
X215526952Y-120435666D01*
X215669810Y-120435666D01*
X215860286Y-120483285D01*
X215955524Y-120530904D01*
X216050762Y-120626142D01*
X216098381Y-120769000D01*
X216098381Y-121007095D01*
X216098381Y-119483285D02*
X216098381Y-120054714D01*
X216098381Y-119769000D02*
X215098381Y-119769000D01*
X215241238Y-119864238D01*
X215336476Y-119959476D01*
X215384095Y-120054714D01*
X218257381Y-117101905D02*
X217257381Y-117101905D01*
X218257381Y-116530476D02*
X217685952Y-116959048D01*
X217257381Y-116530476D02*
X217828810Y-117101905D01*
M02*
