M48
INCH,TZ
T1C0.032
T2C0.039
T3C0.040
T4C0.125
%
G90
G05
T1
X86500Y-49250
X87000Y-38750
X87000Y-42750
X90500Y-49250
T2
X86500Y-46750
X86500Y-47750
T3
X83500Y-37500
X84500Y-37500
X85500Y-37500
X86500Y-37500
X87500Y-37500
X88500Y-37500
X88750Y-39500
X88750Y-40500
X88750Y-41500
X89500Y-37500
X90500Y-37500
X90500Y-45500
X90500Y-46500
X90500Y-47500
X91500Y-45500
X91500Y-46500
X91500Y-47500
T4
X91500Y-43500
T0
M30
